<svg xmlns="http://www.w3.org/2000/svg" xml:space="preserve" id="Layer_1" style="enable-background:new 0 0 595.3 595.3" version="1.1" viewBox="0 0 595.3 595.3">
  <style>
    .st1{fill:#3a1811}.st12{fill:#ffd128}
  </style>
  <circle cx="299.3" cy="300.8" r="189.9" class="st12"/>
  <path d="M299.3 495.7c-107.5 0-194.9-87.4-194.9-194.9s87.4-194.9 194.9-194.9 194.9 87.4 194.9 194.9-87.4 194.9-194.9 194.9zm0-379.9c-102 0-184.9 83-184.9 184.9s83 184.9 184.9 184.9 184.9-83 184.9-184.9-82.9-184.9-184.9-184.9z" class="st1"/>
  <circle cx="299.3" cy="300.8" r="143.9" style="fill:#d1ae23"/>
  <path d="M299.3 449.7c-82.1 0-148.9-66.8-148.9-148.9s66.8-148.9 148.9-148.9c82.1 0 148.9 66.8 148.9 148.9s-66.8 148.9-148.9 148.9zm0-287.9c-76.6 0-138.9 62.3-138.9 138.9s62.3 138.9 138.9 138.9c76.6 0 138.9-62.3 138.9-138.9s-62.3-138.9-138.9-138.9z" class="st1"/>
  <path d="M299.3 431.7c-72.2 0-130.9-58.7-130.9-130.9s58.7-130.9 130.9-130.9 130.9 58.7 130.9 130.9c0 72.1-58.7 130.9-130.9 130.9zm0-256.8c-69.4 0-125.9 56.5-125.9 125.9s56.5 125.9 125.9 125.9 125.9-56.5 125.9-125.9-56.5-125.9-125.9-125.9z" class="st1"/>
  <path d="M359.8 312.5c-2.9-5.7-7-10.4-12.3-14.1-5.2-3.7-11.6-6.9-19.1-9.5-7.5-2.6-15.8-5-25-7.1-7.4-1.9-12.6-3.3-15.8-4.2-3.2-1-6.4-2.3-9.5-4-3.1-1.7-5.6-3.7-7.4-6.1-1.8-2.4-2.7-5.2-2.7-8.5 0-5.3 2.6-9.8 7.9-13.5 5.2-3.7 12.1-5.6 20.7-5.6 9.2 0 15.9 1.7 20.1 5.2 4.2 3.5 7.7 8.3 10.7 14.4 2.3 4.3 4.4 7.4 6.4 9.3 2 1.9 4.8 2.8 8.6 2.8 4.2 0 7.6-1.6 10.4-4.7 2.8-3.2 4.2-6.7 4.2-10.6 0-4.3-1.1-8.7-3.3-13.3-2.2-4.5-5.8-8.9-10.6-13s-10.9-7.4-18.2-9.9c-3.1-1.1-6.5-1.9-10.1-2.5v-6c0-8.8-7.1-15.9-15.9-15.9s-15.9 7.1-15.9 15.9v6c-6.1.9-11.7 2.4-16.8 4.5-9.3 3.8-16.4 9.1-21.3 16.1-4.9 7-7.4 15-7.4 24 0 9.4 2.3 17.3 7 23.7 4.6 6.4 10.9 11.4 18.8 15 7.9 3.7 17.7 6.9 29.5 9.6 8.8 2 15.8 3.9 21 5.7 5.2 1.8 9.5 4.4 12.8 7.7 3.3 3.4 5 7.8 5 13.2 0 6.8-3.1 12.5-9.2 17.1-6.1 4.6-14.1 6.9-23.9 6.9-7.1 0-12.9-1.1-17.3-3.4s-7.8-5.1-10.2-8.6c-2.4-3.5-4.7-7.8-6.7-13-1.7-4.4-3.8-7.7-6.2-9.9-2.4-2.2-5.4-3.3-8.9-3.3-4.3 0-7.9 1.4-10.6 4.3-2.8 2.9-4.2 6.3-4.2 10.3 0 6.9 2.3 14 7 21.3 4.6 7.3 10.7 13.2 18.1 17.5 6.7 3.9 14.5 6.5 23.5 7.9v6c0 8.8 7.1 15.9 15.9 15.9s15.9-7.1 15.9-15.9v-5.9c7.1-1.1 13.6-2.9 19.4-5.6 9.8-4.5 17.3-10.6 22.3-18.5 5.1-7.9 7.6-16.7 7.6-26.6.1-8.4-1.4-15.4-4.3-21.1z" class="st12"/>
  <path d="M298.9 411c-11.5 0-20.9-9.4-20.9-20.9v-1.8c-7.9-1.6-14.9-4.2-21-7.8-8.1-4.8-14.8-11.2-19.8-19.2-5.1-8.1-7.7-16.2-7.7-24 0-5.3 1.9-10 5.6-13.8 3.8-3.8 8.5-5.8 14.2-5.8 4.8 0 8.9 1.6 12.2 4.7 3 2.8 5.4 6.6 7.5 11.8 1.9 4.8 4 8.8 6.2 12 1.9 2.8 4.7 5.2 8.4 7 3.6 1.9 8.7 2.8 15 2.8 8.7 0 15.7-2 20.9-5.9 4.8-3.6 7.2-7.9 7.2-13.1 0-4.1-1.2-7.3-3.5-9.7-2.7-2.8-6.4-5-10.8-6.5-5.1-1.7-11.9-3.6-20.5-5.5-12-2.8-22.3-6.2-30.5-10-8.6-4-15.6-9.6-20.8-16.6-5.3-7.2-7.9-16.2-7.9-26.6 0-10 2.8-19 8.3-26.8 5.4-7.8 13.4-13.8 23.5-17.9 4.2-1.7 8.8-3 13.7-4v-1.8c0-11.5 9.4-20.9 20.9-20.9 11.5 0 20.9 9.4 20.9 20.9v1.9c2.4.5 4.6 1.2 6.7 1.9 7.9 2.7 14.6 6.3 19.9 10.8 5.3 4.5 9.3 9.5 11.8 14.6 2.6 5.2 3.9 10.4 3.9 15.5 0 5.2-1.8 9.9-5.4 13.9-3.7 4.2-8.6 6.4-14.2 6.4-5.1 0-9.2-1.4-12.1-4.2-2.4-2.3-4.8-5.7-7.3-10.5l-.1-.2c-2.6-5.5-5.8-9.8-9.4-12.8-3.2-2.6-9-4-16.9-4-7.4 0-13.4 1.6-17.8 4.7-5.2 3.7-5.8 7.2-5.8 9.5 0 2.2.5 4 1.7 5.5 1.3 1.8 3.3 3.4 5.8 4.7 2.8 1.5 5.7 2.8 8.5 3.6 3.1 1 8.4 2.4 15.6 4.2 9.3 2.2 17.9 4.6 25.4 7.3 7.9 2.7 14.7 6.1 20.3 10.1 5.9 4.2 10.5 9.5 13.8 15.9 3.3 6.4 5 14.2 5 23.2 0 10.8-2.8 20.7-8.4 29.3-5.6 8.7-13.8 15.5-24.5 20.3-5 2.3-10.5 4-16.4 5.2v1.7c-.3 11.5-9.7 20.9-21.2 20.9zm-49.7-83.4c-3 0-5.2.9-7.1 2.8-1.9 1.9-2.8 4.1-2.8 6.8 0 5.9 2.1 12.2 6.2 18.7 4.2 6.6 9.7 12 16.4 15.9 6.1 3.5 13.4 6 21.7 7.3l4.2.7V390c0 6 4.9 10.9 10.9 10.9s10.9-4.9 10.9-10.9v-10.2l4.3-.6c6.6-1 12.7-2.7 18.1-5.2 8.9-4 15.7-9.6 20.2-16.7 4.5-7 6.8-15.1 6.8-23.9 0-7.4-1.3-13.7-3.8-18.6-2.5-4.9-6.2-9.1-10.7-12.3-4.8-3.4-10.8-6.4-17.8-8.8-7.2-2.5-15.5-4.9-24.5-7-7.4-1.9-12.8-3.3-16.1-4.3-3.5-1.1-7-2.5-10.4-4.4-3.7-2-6.7-4.6-9-7.5-2.4-3.2-3.7-7.1-3.7-11.5 0-7 3.3-12.9 9.9-17.6 6.1-4.4 14-6.6 23.6-6.6 10.5 0 18.1 2.1 23.2 6.3 4.7 3.9 8.7 9.3 12 16 2.5 4.7 4.3 6.9 5.4 8 1 1 2.7 1.4 5.2 1.4 2.7 0 4.8-1 6.7-3 2-2.2 2.9-4.6 2.9-7.3 0-3.5-1-7.2-2.8-11.1-1.9-3.9-5.1-7.7-9.3-11.4-4.3-3.7-9.9-6.7-16.6-9-2.8-.9-5.9-1.7-9.3-2.3l-4.2-.7v-10.3c0-6-4.9-10.9-10.9-10.9s-10.9 4.9-10.9 10.9v10.3l-4.2.6c-5.8.9-11 2.3-15.7 4.2-8.3 3.4-14.7 8.2-19.1 14.3-4.3 6.2-6.4 13.1-6.4 21.1 0 8.3 2 15.3 6 20.7 4.1 5.6 9.8 10.2 16.9 13.5 7.6 3.5 17.2 6.6 28.5 9.3 8.9 2 16.1 4 21.5 5.8 6 2 10.9 5.1 14.8 9 4.2 4.3 6.4 10 6.4 16.7 0 8.5-3.8 15.6-11.2 21.1-7 5.2-16 7.8-26.9 7.8-7.9 0-14.5-1.3-19.6-4-5.1-2.6-9.1-6.1-12-10.2-2.6-3.8-5.1-8.5-7.3-14-1.4-3.7-3.1-6.4-4.9-8.1-1.5-1.2-3.3-1.9-5.5-1.9zm50.1-179.7c-1.4 0-2.5-1.1-2.5-2.5V121c0-1.4 1.1-2.5 2.5-2.5s2.5 1.1 2.5 2.5v24.4c0 1.4-1.1 2.5-2.5 2.5zm-53.2 9.4c-1 0-2-.6-2.3-1.6l-8.4-22.9c-.5-1.3.2-2.7 1.5-3.2s2.7.2 3.2 1.5l8.4 22.9c.5 1.3-.2 2.7-1.5 3.2-.3 0-.6.1-.9.1zm-46.7 26.9c-.7 0-1.4-.3-1.9-.9l-15.7-18.7c-.9-1.1-.7-2.6.3-3.5 1.1-.9 2.6-.7 3.5.3l15.7 18.7c.9 1.1.7 2.6-.3 3.5-.5.4-1 .6-1.6.6zm-34.7 41.4c-.4 0-.9-.1-1.2-.3L142.3 213c-1.2-.7-1.6-2.2-.9-3.4.7-1.2 2.2-1.6 3.4-.9l21.1 12.2c1.2.7 1.6 2.2.9 3.4-.4.8-1.2 1.3-2.1 1.3zm-18.4 50.7h-.4l-24-4.2c-1.4-.2-2.3-1.5-2-2.9s1.5-2.3 2.9-2l24 4.2c1.4.2 2.3 1.5 2 2.9-.3 1.1-1.3 2-2.5 2zm-24.1 58.2c-1.2 0-2.2-.9-2.5-2.1-.2-1.4.7-2.7 2-2.9l24-4.2c1.4-.2 2.7.7 2.9 2s-.7 2.7-2 2.9l-24 4.2c-.1.1-.2.1-.4.1zm21.4 58.7c-.9 0-1.7-.4-2.2-1.3-.7-1.2-.3-2.7.9-3.4l21.1-12.2c1.2-.7 2.7-.3 3.4.9s.3 2.7-.9 3.4l-21.1 12.2c-.4.3-.8.4-1.2.4zm40.1 47.8c-.6 0-1.1-.2-1.6-.6-1.1-.9-1.2-2.5-.3-3.5l15.7-18.7c.9-1.1 2.5-1.2 3.5-.3 1.1.9 1.2 2.5.3 3.5l-15.7 18.7c-.5.6-1.2.9-1.9.9zm54.1 31.2c-.3 0-.6 0-.9-.2-1.3-.5-2-1.9-1.5-3.2l8.4-22.9c.5-1.3 1.9-2 3.2-1.5 1.3.5 2 1.9 1.5 3.2l-8.4 22.9c-.3 1.1-1.3 1.7-2.3 1.7zm61.5 10.9c-1.4 0-2.5-1.1-2.5-2.5v-24.4c0-1.4 1.1-2.5 2.5-2.5s2.5 1.1 2.5 2.5v24.4c0 1.4-1.1 2.5-2.5 2.5zm61.5-10.9c-1 0-2-.6-2.3-1.6l-8.4-22.9c-.5-1.3.2-2.7 1.5-3.2s2.7.2 3.2 1.5l8.4 22.9c.5 1.3-.2 2.7-1.5 3.2-.3.1-.6.1-.9.1zm54.1-31.2c-.7 0-1.4-.3-1.9-.9l-15.7-18.7c-.9-1.1-.8-2.6.3-3.5 1.1-.9 2.6-.8 3.5.3l15.7 18.7c.9 1.1.8 2.6-.3 3.5-.5.4-1.1.6-1.6.6zm40.1-47.8c-.4 0-.9-.1-1.2-.3l-21.1-12.2c-1.2-.7-1.6-2.2-.9-3.4.7-1.2 2.2-1.6 3.4-.9l21.1 12.2c1.2.7 1.6 2.2.9 3.4-.5.7-1.3 1.2-2.2 1.2zm21.4-58.7h-.4l-24-4.2c-1.4-.2-2.3-1.5-2-2.9s1.5-2.3 2.9-2l24 4.2c1.4.2 2.3 1.5 2 2.9-.3 1.1-1.3 2-2.5 2zm-24.1-58.2c-1.2 0-2.2-.9-2.5-2.1-.2-1.4.7-2.7 2-2.9l24-4.2c1.4-.2 2.7.7 2.9 2 .2 1.4-.7 2.7-2 2.9l-24 4.2c-.1.1-.2.1-.4.1zm-18.4-50.7c-.9 0-1.7-.4-2.2-1.3-.7-1.2-.3-2.7.9-3.4l21.1-12.2c1.2-.7 2.7-.3 3.4.9.7 1.2.3 2.7-.9 3.4l-21.1 12.2c-.4.3-.8.4-1.2.4zm-34.7-41.4c-.6 0-1.1-.2-1.6-.6-1.1-.9-1.2-2.5-.3-3.5l15.7-18.7c.9-1.1 2.5-1.2 3.5-.3 1.1.9 1.2 2.5.3 3.5l-15.7 18.7c-.5.6-1.2.9-1.9.9zm-46.8-26.9c-.3 0-.6 0-.9-.2-1.3-.5-2-1.9-1.5-3.2l8.4-22.9c.5-1.3 1.9-2 3.2-1.5 1.3.5 2 1.9 1.5 3.2l-8.4 22.9c-.3 1-1.2 1.7-2.3 1.7z" class="st1"/>
  <path d="M435.4 193c-.8 0-1.6-.4-2.1-1.2-16.8-26.6-45.5-42.3-45.7-42.5-1.2-.7-1.7-2.2-1-3.4.7-1.2 2.2-1.7 3.4-1 1.2.7 30.1 16.5 47.6 44.2.7 1.2.4 2.7-.8 3.4-.5.3-1 .5-1.4.5zm25.7 174.6c-.3 0-.6-.1-.9-.2-1.3-.5-1.9-2-1.4-3.2 27.5-70.2.3-128.8.1-129.4-.6-1.2-.1-2.7 1.2-3.3 1.2-.6 2.7-.1 3.3 1.2.3.6 7.2 15.4 10.8 39.4 3.3 22 4 56.2-10.7 93.9-.5 1-1.4 1.6-2.4 1.6zM310.5 477c-1.3 0-2.4-1-2.5-2.3-.1-1.4.9-2.6 2.3-2.7 75.1-5.3 116.5-54.9 116.9-55.4.9-1.1 2.5-1.2 3.5-.4 1.1.9 1.2 2.4.4 3.5-.4.5-10.8 13.2-30.9 26.6-18.5 12.4-49.1 27.8-89.5 30.6-.1.1-.1.1-.2.1zm100.2-200.7c-1.1 0-2.2-.8-2.4-2-11.4-52.2-59.5-76.3-60-76.5-1.2-.6-1.8-2.1-1.1-3.3.6-1.2 2.1-1.8 3.3-1.1.5.2 50.7 25.3 62.7 79.9.3 1.3-.6 2.7-1.9 3h-.6zM385.9 381c-.6 0-1.3-.2-1.7-.7-1-1-1-2.5-.1-3.5 27-27.9 28.3-75.5 28.3-76 0-1.4 1.2-2.5 2.5-2.4 1.4 0 2.5 1.2 2.4 2.5 0 2-1.3 50-29.7 79.4-.4.4-1.1.7-1.7.7z" class="st1"/>
</svg>
